<mxfile host="app.diagrams.net" modified="2023-11-07T06:21:14.577Z" agent="Mozilla/5.0 (Windows NT 10.0; Win64; x64) AppleWebKit/537.36 (KHTML, like Gecko) Chrome/118.0.0.0 Safari/537.36" etag="klLbPssMHSu5F-bwlhS9" version="22.0.8" type="github">
  <diagram name="第 1 页" id="YaxXE7lVLTrCaZ8Qgefj">
    <mxGraphModel dx="560" dy="657" grid="1" gridSize="10" guides="1" tooltips="1" connect="1" arrows="1" fold="1" page="1" pageScale="1" pageWidth="827" pageHeight="1169" math="0" shadow="0">
      <root>
        <mxCell id="0" />
        <mxCell id="1" parent="0" />
        <mxCell id="0VuWNwS_m-NYZjBAccNY-27" value="cicids2017&lt;br&gt;数据集" style="strokeWidth=2;html=1;shape=mxgraph.flowchart.multi-document;whiteSpace=wrap;fillColor=#dae8fc;strokeColor=#6c8ebf;" vertex="1" parent="1">
          <mxGeometry x="120" y="80" width="88" height="60" as="geometry" />
        </mxCell>
        <mxCell id="0VuWNwS_m-NYZjBAccNY-28" value="pcap数据包" style="strokeWidth=2;html=1;shape=mxgraph.flowchart.multi-document;whiteSpace=wrap;fillColor=#dae8fc;strokeColor=#6c8ebf;" vertex="1" parent="1">
          <mxGeometry x="310" y="80" width="88" height="60" as="geometry" />
        </mxCell>
        <mxCell id="0VuWNwS_m-NYZjBAccNY-30" value="特征提取" style="rounded=1;whiteSpace=wrap;html=1;strokeColor=#6c8ebf;strokeWidth=2;align=center;verticalAlign=middle;fontFamily=Helvetica;fontSize=12;fontColor=default;fillColor=#dae8fc;" vertex="1" parent="1">
          <mxGeometry x="294" y="170" width="120" height="60" as="geometry" />
        </mxCell>
        <mxCell id="0VuWNwS_m-NYZjBAccNY-32" value="" style="rounded=1;whiteSpace=wrap;html=1;strokeColor=#6c8ebf;strokeWidth=2;align=center;verticalAlign=middle;fontFamily=Helvetica;fontSize=12;fontColor=default;fillColor=#dae8fc;" vertex="1" parent="1">
          <mxGeometry x="294" y="260" width="120" height="60" as="geometry" />
        </mxCell>
      </root>
    </mxGraphModel>
  </diagram>
</mxfile>
